HIERARCHY
ROOT RootJoint
{
    OFFSET   0.000000   0.000000   0.000000
    CHANNELS 6 Xposition Yposition Zposition Xrotation Yrotation Zrotation
    JOINT pelvis_lowerback
    {
        OFFSET   0.000000   0.093605   0.000000
        CHANNELS 3 Xrotation Yrotation Zrotation
        JOINT lowerback_torso
        {
            OFFSET   0.000000   0.100000   0.000000
            CHANNELS 3 Xrotation Yrotation Zrotation
            JOINT torso_head
            {
                OFFSET   0.000000   0.282350   0.000000
                CHANNELS 3 Xrotation Yrotation Zrotation
                End Site
                {
                    OFFSET   0.000000   0.192650   0.000000
                }
            }
            JOINT rTorso_Clavicle
            {
                OFFSET  -0.001000   0.157500   0.000000
                CHANNELS 3 Xrotation Yrotation Zrotation
                JOINT rShoulder
                {
                    OFFSET  -0.117647   0.000000   0.000000
                    CHANNELS 3 Xrotation Yrotation Zrotation
                    JOINT rElbow
                    {
                        OFFSET  -0.245000   0.000000   0.000000
                        CHANNELS 3 Xrotation Yrotation Zrotation
                        JOINT rWrist
                        {
                            OFFSET  -0.240000   0.000000   0.000000
                            CHANNELS 3 Xrotation Yrotation Zrotation
                            End Site
                            {
                                OFFSET  -0.116353  -0.002500   0.000000
                            }
                        }
                    }
                }
            }
            JOINT lTorso_Clavicle
            {
                OFFSET   0.001000   0.157500   0.000000
                CHANNELS 3 Xrotation Yrotation Zrotation
                JOINT lShoulder
                {
                    OFFSET   0.117647   0.000000   0.000000
                    CHANNELS 3 Xrotation Yrotation Zrotation
                    JOINT lElbow
                    {
                        OFFSET   0.245000   0.000000   0.000000
                        CHANNELS 3 Xrotation Yrotation Zrotation
                        JOINT lWrist
                        {
                            OFFSET   0.240000   0.000000   0.000000
                            CHANNELS 3 Xrotation Yrotation Zrotation
                            End Site
                            {
                                OFFSET   0.116353  -0.002500   0.000000
                            }
                        }
                    }
                }
            }
        }
    }
    JOINT rHip
    {
        OFFSET  -0.100000  -0.051395   0.000000
        CHANNELS 3 Xrotation Yrotation Zrotation
        JOINT rKnee
        {
            OFFSET   0.000000  -0.410000   0.000000
            CHANNELS 3 Xrotation Yrotation Zrotation
            JOINT rAnkle
            {
                OFFSET   0.000000  -0.390000   0.000000
                CHANNELS 3 Xrotation Yrotation Zrotation
                JOINT rToeJoint
                {
                    OFFSET   0.000000  -0.050000   0.130000
                    CHANNELS 3 Xrotation Yrotation Zrotation
                    End Site
                    {
                        OFFSET  -0.010000   0.002000   0.060000
                    }
                }
            }
        }
    }
    JOINT lHip
    {
        OFFSET   0.100000  -0.051395   0.000000
        CHANNELS 3 Xrotation Yrotation Zrotation
        JOINT lKnee
        {
            OFFSET   0.000000  -0.410000   0.000000
            CHANNELS 3 Xrotation Yrotation Zrotation
            JOINT lAnkle
            {
                OFFSET   0.000000  -0.390000   0.000000
                CHANNELS 3 Xrotation Yrotation Zrotation
                JOINT lToeJoint
                {
                    OFFSET   0.000000  -0.050000   0.130000
                    CHANNELS 3 Xrotation Yrotation Zrotation
                    End Site
                    {
                        OFFSET   0.010000   0.002000   0.060000
                    }
                }
            }
        }
    }
}
MOTION
Frames: 8
Frame Time:   0.008333
 -2.439065   0.894390   4.618922  -0.483159   3.559617  -2.109632  10.499296  -3.139126   2.640871   5.883656  -2.479962   4.353006  -2.572212  -0.270019   0.140876   2.741147   2.319491  12.929219  10.351677  10.713922  42.824881  -0.007848  14.101299  -0.001946  10.436240   2.468468   0.130337   2.710192  -5.082243 -12.111708  10.763002 -19.062257 -46.514907  -0.002292 -19.399645   0.000470   9.884192  -3.646552  -1.622752 -15.229414  -1.856550   0.941203  28.419596   0.005213   0.005132 -12.590033  -3.993876  -2.200424  -0.140686   0.000054   0.000244   5.627895  -1.826882   8.261172  54.909032   0.011550  -0.005249   5.719059   3.165860  -1.058832 -12.468989  -0.010911   0.015857
 -2.440464   0.896484   4.628674  -0.508999   3.330124  -1.989964  10.515151  -2.811805   2.534636   5.727438  -2.472426   4.176579  -2.441749  -0.307480   0.180609   2.658795   2.392837  12.731527  10.101649  10.820573  42.773897  -0.009160  14.747101  -0.001311  10.434392   2.399403  -0.027939   2.758453  -4.965812 -12.076338  11.070675 -19.010916 -46.655082  -0.002382 -19.176993   0.000610   9.879679  -3.676803  -1.686042 -14.053828  -1.886836   0.960547  27.464846   0.005539   0.006272 -12.772260  -3.711970  -2.165357  -0.180269   0.000095   0.000195   4.076613  -1.724210   7.834392  56.200607   0.011617  -0.006047   4.361727   3.462143  -0.883625 -11.424710  -0.007491   0.014115
 -2.441746   0.898589   4.638277  -0.531096   3.113310  -1.840584  10.544418  -2.485406   2.413595   5.580731  -2.451359   3.988091  -2.311836  -0.344581   0.216631   2.556118   2.476244  12.525553   9.847420  10.939365  42.719477  -0.010147  15.368107  -0.001051  10.427965   2.422998  -0.224579   2.813693  -4.847690 -12.026679  11.366233 -18.957287 -46.787203  -0.002410 -18.967058   0.000745   9.874070  -3.710118  -1.765766 -12.855328  -1.905175   0.938033  26.430766   0.005733   0.007273 -12.905554  -3.444033  -2.143386  -0.212321   0.000110   0.000156   2.468661  -1.607229   7.366950  57.295940   0.011520  -0.006504   3.081199   3.733412  -0.713829 -10.516856  -0.004482   0.012320
 -2.442960   0.900533   4.647816  -0.568112   2.899380  -1.681333  10.582530  -2.155784   2.286872   5.450358  -2.408969   3.797147  -2.186130  -0.379189   0.248831   2.446957   2.565656  12.314184   9.601129  11.058823  42.658479  -0.010799  15.953959  -0.001041  10.421977   2.486091  -0.440781   2.875323  -4.727019 -11.966225  11.651084 -18.900017 -46.907284  -0.002370 -18.768269   0.000890   9.868348  -3.732017  -1.853427 -11.648287  -1.909711   0.899167  25.397694   0.005749   0.007969 -13.035473  -3.190242  -2.128301  -0.239529   0.000113   0.000125   0.853676  -1.483817   6.893733  58.264612   0.011135  -0.006781   1.881687   3.982264  -0.550178  -9.693731  -0.002074   0.010571
 -2.444132   0.902236   4.657335  -0.623731   2.680873  -1.524807  10.624530  -1.824096   2.160881   5.334821  -2.347090   3.609444  -2.066084  -0.410971   0.277976   2.336641   2.657149  12.101786   9.366143  11.174974  42.591794  -0.011149  16.503724  -0.001123  10.417160   2.562807  -0.669063   2.943765  -4.602951 -11.899437  11.926693 -18.838221 -47.015834  -0.002278 -18.578850   0.001033   9.863193  -3.735701  -1.942551 -10.444923  -1.901718   0.857794  24.403974   0.005618   0.008377 -13.182703  -2.945969  -2.113028  -0.264263   0.000111   0.000100  -0.739930  -1.358452   6.434960  59.135053   0.010465  -0.006943   0.759352   4.211166  -0.392912  -8.944388  -0.000290   0.008902
 -2.445274   0.903671   4.666848  -0.696420   2.457436  -1.378235  10.666748  -1.495033   2.039647   5.231175  -2.270510   3.428962  -1.952638  -0.440151   0.304731   2.227756   2.748439  11.892808   9.143369  11.286426  42.521777  -0.011238  17.018500  -0.001201  10.413447   2.643203  -0.904510   3.018010  -4.476600 -11.830145  12.193049 -18.772700 -47.114496  -0.002154 -18.398045   0.001160   9.858879  -3.719727  -2.031141  -9.253300  -1.877545   0.820418  23.465776   0.005359   0.008489 -13.356303  -2.703429  -2.094083  -0.287402   0.000107   0.000077  -2.296692  -1.235335   6.002284  59.922688   0.009585  -0.007002  -0.290257   4.422099  -0.242158  -8.261143   0.000953   0.007357
 -2.446391   0.904858   4.676364  -0.785505   2.234121  -1.248460  10.708852  -1.173853   1.928392   5.137859  -2.184683   3.259574  -1.846204  -0.467057   0.329697   2.121672   2.838361  11.691638   8.932824  11.392755  42.450760  -0.011099  17.499884  -0.001238  10.410624   2.722909  -1.143218   3.095575  -4.350608 -11.762755  12.448781 -18.705487 -47.205338  -0.002011 -18.225788   0.001259   9.855464  -3.686132  -2.118347  -8.083060  -1.835171   0.792645  22.600274   0.004983   0.008284 -13.541176  -2.457462  -2.071815  -0.344964   0.000127   0.000042  -3.805473  -1.118138   5.604441  60.637060   0.008601  -0.006951  -1.271557   4.616726  -0.097968  -7.637207   0.001778   0.005977
 -2.447373   0.906199   4.685848  -0.855104   2.015707  -1.092495  10.765222  -0.865963   1.833891   5.012071  -2.141973   3.052366  -1.743593  -0.531886   0.345915   2.001743   2.857986  11.499822   8.625135  11.532014  42.372730  -0.011865  18.118571  -0.000490  10.373267   2.669540  -1.293767   3.132513  -4.129289 -11.686464  12.702645 -18.546528 -47.342801  -0.001805 -18.094581   0.001419   9.849530  -3.738570  -2.181708  -6.908787  -1.860422   0.706880  21.663262   0.004718   0.008809 -13.581616  -2.184385  -1.959109  -0.544516   0.000365   0.000031  -5.225189  -0.934765   5.190379  60.698257   0.006965  -0.005685  -2.403105   4.833077  -0.003548  -7.180691   0.002745   0.005103
